HIERARCHY
ROOT Hips
{
 OFFSET 0.000000 0.000000 0.000000
 CHANNELS 6 Xposition Yposition Zposition Yrotation Xrotation Zrotation
 JOINT Chest
 {
  OFFSET 0.000000 9.585900 0.002600
  CHANNELS 3 Yrotation Xrotation Zrotation
  JOINT Chest2
  {
   OFFSET 0.000000 9.601200 -0.005300
   CHANNELS 3 Yrotation Xrotation Zrotation
   JOINT Chest3
   {
    OFFSET 0.000000 9.561800 0.000000
    CHANNELS 3 Yrotation Xrotation Zrotation
    JOINT Chest4
    {
     OFFSET 0.000000 9.552100 0.000000
     CHANNELS 3 Yrotation Xrotation Zrotation
     JOINT Neck
     {
      OFFSET 0.000000 14.453000 0.000000
      CHANNELS 3 Yrotation Xrotation Zrotation
      JOINT Head
      {
       OFFSET 0.000000 8.936500 -0.011300
       CHANNELS 3 Yrotation Xrotation Zrotation
       End Site
       {
        OFFSET 0.000000 17.073600 -0.006000
       }
      }
     }
     JOINT RightCollar
     {
      OFFSET -2.921100 9.558500 0.000000
      CHANNELS 3 Yrotation Xrotation Zrotation
      JOINT RightShoulder
      {
       OFFSET -13.519700 0.000000 0.000000
       CHANNELS 3 Yrotation Xrotation Zrotation
       JOINT RightElbow
       {
        OFFSET 0.000000 -29.696600 0.000000
        CHANNELS 3 Yrotation Xrotation Zrotation
        JOINT RightWrist
        {
         OFFSET 0.000000 -24.004700 0.000000
         CHANNELS 3 Yrotation Xrotation Zrotation
         End Site
         {
          OFFSET 0.000000 -17.728500 0.000000
         }
        }
       }
      }
     }
     JOINT LeftCollar
     {
      OFFSET 2.921100 9.558500 0.000000
      CHANNELS 3 Yrotation Xrotation Zrotation
      JOINT LeftShoulder
      {
       OFFSET 13.519700 0.000000 0.000000
       CHANNELS 3 Yrotation Xrotation Zrotation
       JOINT LeftElbow
       {
        OFFSET 0.000000 -29.696600 0.000000
        CHANNELS 3 Yrotation Xrotation Zrotation
        JOINT LeftWrist
        {
         OFFSET 0.000000 -24.004700 0.000000
         CHANNELS 3 Yrotation Xrotation Zrotation
         End Site
         {
          OFFSET 0.000000 -17.728500 0.000000
         }
        }
       }
      }
     }
    }
   }
  }
 }
 JOINT RightHip
 {
  OFFSET -7.771700 -0.012900 -0.001300
  CHANNELS 3 Yrotation Xrotation Zrotation
  JOINT RightKnee
  {
   OFFSET 0.000000 -40.869800 0.001200
   CHANNELS 3 Yrotation Xrotation Zrotation
   JOINT RightAnkle
   {
    OFFSET 0.000000 -39.717900 0.002100
    CHANNELS 3 Yrotation Xrotation Zrotation
    JOINT RightToe
    {
     OFFSET 0.000000 -4.965400 11.033500
     CHANNELS 3 Yrotation Xrotation Zrotation
     End Site
     {
      OFFSET 0.000000 -1.423100 5.872300
     }
    }
   }
  }
 }
 JOINT LeftHip
 {
  OFFSET 7.771700 -0.012900 -0.001300
  CHANNELS 3 Yrotation Xrotation Zrotation
  JOINT LeftKnee
  {
   OFFSET 0.000000 -40.869800 0.001200
   CHANNELS 3 Yrotation Xrotation Zrotation
   JOINT LeftAnkle
   {
    OFFSET 0.000000 -39.717900 0.002100
    CHANNELS 3 Yrotation Xrotation Zrotation
    JOINT LeftToe
    {
     OFFSET 0.000000 -4.965400 11.033500
     CHANNELS 3 Yrotation Xrotation Zrotation
     End Site
     {
      OFFSET 0.000000 -1.423100 5.872300
     }
    }
   }
  }
 }
}
MOTION
Frames: 8
Frame Time: 0.008333
-92.938954 57.362276 92.858653 174.259419 -33.658770 -3.032435 3.075782 20.037310 2.196904 0.257168 2.496309 0.205915 0.426991 4.095110 0.343953 2.009096 17.171079 1.693413 -1.600945 15.231112 0.057352 -3.012429 -7.492780 0.698092 3.178856 -3.365895 -1.004984 12.210013 -17.731823 -21.386463 131.259070 -64.530625 -90.353434 21.086008 -22.976788 -57.009593 -7.754814 -4.435920 -2.498615 3.410851 -9.794136 1.763642 -111.401587 -38.678060 93.650941 -13.569950 -17.426412 34.901507 6.974613 -42.250597 -2.301512 -15.987963 66.118091 -16.197199 12.861625 23.640468 8.424476 -0.484108 -15.745660 1.380095 -10.000608 -39.587191 8.168217 29.818523 67.798388 26.976322 -15.673742 4.452345 -3.520686 0.194993 0.373971 0.052561
-92.929495 57.361852 92.863623 174.212717 -33.670774 -2.988119 3.052326 20.046400 2.158060 0.284553 2.496798 0.205831 0.416903 4.091705 0.344386 2.015768 17.167618 1.692960 -1.571278 15.226087 0.040546 -2.934748 -7.499583 0.644808 3.165044 -3.365310 -0.995991 12.145673 -17.683153 -21.182294 130.857100 -64.482202 -90.081168 21.067827 -22.959683 -56.984779 -7.772406 -4.445536 -2.495211 3.381476 -9.823267 1.791240 -111.350227 -38.706846 93.615854 -13.580435 -17.459746 34.907202 7.019858 -42.244549 -2.315030 -15.994255 66.108173 -16.198923 12.847570 23.655662 8.393998 -0.479193 -15.742386 1.396119 -9.973911 -39.573587 8.131629 29.859449 67.785252 27.032637 -15.636232 4.470593 -3.513513 0.166355 0.365435 0.025732
-92.910337 57.360934 92.871352 174.153299 -33.672936 -2.994360 3.059517 20.044764 2.180964 0.314371 2.494641 0.205736 0.428769 4.092817 0.343462 2.017169 17.166497 1.692593 -1.558714 15.219200 0.032419 -2.854000 -7.510703 0.585449 3.130383 -3.367255 -0.980197 12.063905 -17.640669 -20.952719 130.418070 -64.436723 -89.796963 21.043208 -22.935574 -56.966117 -7.805801 -4.460081 -2.481178 3.359843 -9.852554 1.810335 -111.434275 -38.707147 93.652692 -13.571704 -17.400407 34.918631 7.009553 -42.259171 -2.233779 -15.991232 66.093904 -16.201750 12.829273 23.686541 8.358825 -0.473631 -15.747806 1.414371 -9.987880 -39.560900 8.159910 29.818770 67.781454 27.081682 -15.632267 4.456033 -3.622467 0.211082 0.371948 0.044765
-92.894590 57.356339 92.884064 174.059170 -33.637680 -2.963367 3.114684 20.005459 2.192259 0.248206 2.493450 0.204921 0.467275 4.091532 0.339971 2.031758 17.162064 1.693519 -1.519243 15.216232 0.006198 -2.776257 -7.520105 0.527617 3.114570 -3.366289 -0.971770 11.970009 -17.600727 -20.702742 129.951284 -64.399331 -89.498907 21.018155 -22.903214 -56.952002 -7.811849 -4.468024 -2.476629 3.375411 -9.861271 1.806842 -111.511999 -38.701083 93.706832 -13.573549 -17.391111 34.934712 7.063591 -42.323672 -2.192178 -15.988336 66.074251 -16.185466 12.775977 23.778413 8.297378 -0.433651 -15.788050 1.440157 -9.967014 -39.590522 8.180503 29.845651 67.770060 27.147235 -15.588777 4.456419 -3.658151 0.178836 0.376063 0.039002
-92.884183 57.354207 92.891999 174.003255 -33.628980 -2.918998 3.130683 19.995948 2.170996 0.212720 2.493140 0.204776 0.446642 4.088739 0.340678 2.057469 17.157518 1.687361 -1.467263 15.212077 -0.027617 -2.701488 -7.527760 0.470744 3.050580 -3.361708 -0.931250 11.921590 -17.563719 -20.468621 129.482568 -64.368625 -89.206607 20.990311 -22.866190 -56.933948 -7.807844 -4.471214 -2.473596 3.396295 -9.873195 1.798259 -111.563011 -38.698958 93.761081 -13.577891 -17.403970 34.955350 7.129292 -42.345400 -2.209566 -15.992358 66.067898 -16.172698 12.745755 23.806599 8.259498 -0.396628 -15.792157 1.451089 -9.946532 -39.598841 8.154721 29.908930 67.756370 27.222761 -15.535779 4.467282 -3.665036 0.138265 0.384644 0.036171
-92.869598 57.353794 92.898194 173.960678 -33.634746 -2.906686 3.114919 20.003362 2.164285 0.241717 2.490975 0.204980 0.425046 4.086799 0.341838 2.082203 17.157977 1.683522 -1.445886 15.203246 -0.046055 -2.665982 -7.527458 0.445729 3.007064 -3.361859 -0.904949 11.787874 -17.538487 -20.202362 129.037564 -64.339415 -88.939484 20.956429 -22.827619 -56.909679 -7.837273 -4.476499 -2.458141 3.356201 -9.945451 1.803060 -111.509169 -38.723117 93.756956 -13.582521 -17.414179 34.977311 7.158883 -42.352071 -2.190380 -16.003490 66.063913 -16.173561 12.748377 23.820499 8.240483 -0.404059 -15.792994 1.464839 -9.947095 -39.590129 8.154579 29.913357 67.751526 27.283308 -15.531912 4.468690 -3.731787 0.162536 0.377197 0.042546
-92.853591 57.353522 92.904524 173.928242 -33.638639 -2.909905 3.103630 20.005933 2.173092 0.263778 2.490739 0.203839 0.401134 4.085107 0.342968 2.091688 17.154558 1.681192 -1.415282 15.204622 -0.065874 -2.626744 -7.533495 0.412848 2.974290 -3.358116 -0.883408 11.634844 -17.515954 -19.934288 128.621698 -64.306027 -88.695261 20.923627 -22.789456 -56.886615 -7.854559 -4.475009 -2.450676 3.371958 -9.977502 1.791634 -111.533965 -38.728756 93.807331 -13.592073 -17.422101 35.001913 7.167784 -42.356636 -2.158051 -16.009830 66.056220 -16.169489 12.750782 23.826918 8.225557 -0.409158 -15.786909 1.471989 -9.946077 -39.582726 8.171770 29.857502 67.753926 27.291428 -15.542006 4.471978 -3.808814 0.204759 0.364531 0.056996
-92.841784 57.352251 92.911595 173.886516 -33.631306 -2.885147 3.081474 19.998484 2.152096 0.232052 2.489610 0.205522 0.472436 4.086496 0.338046 2.025444 17.149525 1.697937 -1.350837 15.206371 -0.113336 -2.493820 -7.563190 0.279764 2.981344 -3.353561 -0.888597 11.473195 -17.496546 -19.671239 128.236285 -64.264934 -88.476415 20.896316 -22.751494 -56.868447 -7.830381 -4.475041 -2.467880 3.402404 -10.001590 1.772247 -111.567514 -38.732799 93.869155 -13.603255 -17.429302 35.025583 7.211420 -42.375212 -2.159959 -16.019275 66.050931 -16.166822 12.737007 23.844594 8.210410 -0.409007 -15.786860 1.477797 -9.950679 -39.589581 8.162576 29.874788 67.747174 27.342362 -15.513473 4.488946 -3.848903 0.201129 0.352413 0.054517
